<svg width="1796" height="165" viewBox="0 0 1796 165" fill="none" xmlns="http://www.w3.org/2000/svg">
<path d="M1714.49 72.3955C1720.96 31.1984 1743.89 7.35592 1754.73 0.369447C1765.56 7.35592 1788.22 31.1984 1794.68 72.3955C1801.22 114.099 1770.89 137.521 1754.75 144.169C1738.61 137.521 1707.95 114.099 1714.49 72.3955Z" fill="#326238"/>
<path d="M1752.97 2.35714C1752.97 1.70623 1753.49 1.17857 1754.14 1.17857H1755.32C1755.97 1.17857 1756.49 1.70624 1756.49 2.35714V165H1752.97V2.35714Z" fill="#326238"/>
<path d="M59.904 121.76V76.9602H187.648C192.768 76.9602 197.035 76.1922 200.448 74.6562C204.032 72.9495 205.824 69.4508 205.824 64.1602C205.824 58.6988 204.032 55.2002 200.448 53.6642C197.035 52.1282 192.768 51.3602 187.648 51.3602H64V164H0V0.160156H177.664C190.464 0.160156 202.411 1.09883 213.504 2.97617C224.768 4.68283 234.581 7.84016 242.944 12.4482C251.307 17.0562 257.877 23.5415 262.656 31.9042C267.435 40.2668 269.824 51.0188 269.824 64.1602C269.824 77.3015 267.435 87.7122 262.656 95.3922C257.877 103.072 251.307 108.79 242.944 112.544C234.581 116.299 224.768 118.774 213.504 119.968C202.411 121.163 190.464 121.76 177.664 121.76H59.904Z" fill="#DC9F96"/>
<path d="M365.762 0.160156V115.36H515.01V164H301.762V0.160156H365.762Z" fill="#DC9F96"/>
<path d="M585.246 139.168V100.768H760.35V139.168H585.246ZM527.902 164L637.726 0.160156H708.894L819.742 164H749.342L654.366 17.3122H692.51L598.302 164H527.902Z" fill="#DC9F96"/>
<path d="M1097.03 113.824L1073.22 127.392V0.160156H1137.22V164H1073.22L880.454 52.3842L904.262 38.5602V164H840.262V0.160156H904.262L1097.03 113.824Z" fill="#DC9F96"/>
<path d="M1162.77 0.160156H1429.01V48.8002H1162.77V0.160156ZM1263.89 45.4722H1327.89V164H1263.89V45.4722Z" fill="#DC9F96"/>
<path d="M1711.73 0.160156L1608.05 122.272V164H1544.05V122.272L1440.37 0.160156H1515.89L1600.12 106.4H1552.76L1636.21 0.160156H1711.73Z" fill="#DC9F96"/>
</svg>
